<?xml version="1.0" encoding="UTF-8" standalone="no"?>
<!-- Created with Inkscape (http://www.inkscape.org/) -->

<svg
   width="32mm"
   height="32mm"
   viewBox="0 0 32 32"
   version="1.1"
   id="svg5"
   xmlns="http://www.w3.org/2000/svg"
   xmlns:svg="http://www.w3.org/2000/svg">
  <defs
     id="defs2" />
  <g
     id="layer1">
    <rect
       style="fill:#0000ff;stroke-width:0.236688"
       id="rect53"
       width="32"
       height="32"
       x="0"
       y="0" />
    <rect
       style="fill:#ffffff;stroke-width:0.129323"
       id="rect197"
       width="28"
       height="14"
       x="2"
       y="16" />
    <path
       id="rect523"
       style="fill:#ffffff;stroke-width:0.142335"
       d="M 3.9997558,3.9997558 V 14.000179 H 14.000179 V 12.000301 H 5.9996339 V 5.9996339 H 14.000179 V 3.9997558 Z" />
    <path
       id="rect523-5-6"
       style="fill:#ffffff;stroke-width:0.142335"
       d="M 18,3.999757 V 14.000179 H 28.000423 V 12.000302 H 19.999878 V 3.999757 Z" />
    <path
       id="rect4172"
       style="fill:#0000ff;stroke-width:1.29259"
       d="M 64.251953 64.251953 L 64.251953 109.60547 L 109.60547 109.60547 L 109.60547 64.251953 L 64.251953 64.251953 z M 68.03125 68.03125 L 105.82617 68.03125 L 105.82617 105.82617 L 68.03125 105.82617 L 68.03125 68.03125 z "
       transform="scale(0.26458333)" />
    <rect
       style="fill:#0000ff;stroke-width:0.103759"
       id="rect4670"
       width="1"
       height="1"
       x="19"
       y="23" />
    <rect
       style="fill:#0000ff;stroke-width:0.103759"
       id="rect4670-5"
       width="1"
       height="1"
       x="20"
       y="24" />
    <rect
       style="fill:#0000ff;stroke-width:0.103759"
       id="rect4670-9"
       width="1"
       height="1"
       x="21"
       y="25" />
    <rect
       style="fill:#0000ff;stroke-width:0.103759"
       id="rect4670-2"
       width="1"
       height="1"
       x="22"
       y="24" />
    <rect
       style="fill:#0000ff;stroke-width:0.103759"
       id="rect4670-28"
       width="1"
       height="1"
       x="23"
       y="23" />
    <rect
       style="fill:#0000ff;stroke-width:0.103759"
       id="rect4670-97"
       width="1"
       height="1"
       x="24"
       y="22" />
    <rect
       style="fill:#0000ff;stroke-width:0.103759"
       id="rect4670-3"
       width="1"
       height="1"
       x="25"
       y="21" />
    <rect
       style="fill:#0000ff;stroke-width:0.103759"
       id="rect4670-6"
       width="1"
       height="1"
       x="26"
       y="20" />
    <rect
       style="fill:#0000ff;stroke-width:0.0957866"
       id="rect4892-9"
       width="1"
       height="1"
       x="3"
       y="17" />
    <rect
       style="fill:#0000ff;stroke-width:0.302904"
       id="rect4892-1-3"
       width="10"
       height="1"
       x="5"
       y="17" />
    <rect
       style="fill:#0000ff;stroke-width:0.331815"
       id="rect4892-1-2-1"
       width="12"
       height="1"
       x="3"
       y="19" />
    <rect
       style="fill:#0000ff;stroke-width:0.302904"
       id="rect4892-1-2-1-8"
       width="10"
       height="1"
       x="3"
       y="21" />
    <rect
       style="fill:#0000ff;stroke-width:0.0957866"
       id="rect4892-9-9"
       width="1"
       height="1"
       x="3"
       y="23" />
    <rect
       style="fill:#0000ff;stroke-width:0.302904"
       id="rect4892-1-3-4"
       width="10"
       height="1"
       x="5"
       y="23" />
    <rect
       style="fill:#0000ff;stroke-width:0.302904"
       id="rect4892-1-2-1-7"
       width="10"
       height="1"
       x="3"
       y="25" />
    <rect
       style="fill:#0000ff;stroke-width:0.469257"
       id="rect4892-1-2-1-7-0"
       width="12"
       height="2"
       x="3"
       y="27" />
  </g>
</svg>
