<?xml version="1.0" encoding="UTF-8" standalone="no"?>
<svg
   xmlns:dc="http://purl.org/dc/elements/1.1/"
   xmlns:cc="http://creativecommons.org/ns#"
   xmlns:rdf="http://www.w3.org/1999/02/22-rdf-syntax-ns#"
   xmlns:svg="http://www.w3.org/2000/svg"
   xmlns="http://www.w3.org/2000/svg"
   width="160mm"
   height="160mm"
   viewBox="0 0 160 160"
   version="1.1"
   id="svg8">
  <defs
     id="defs2" />
  <metadata
     id="metadata5">
    <rdf:RDF>
      <cc:Work
         rdf:about="">
        <dc:format>image/svg+xml</dc:format>
        <dc:type
           rdf:resource="http://purl.org/dc/dcmitype/StillImage" />
        <dc:title></dc:title>
      </cc:Work>
    </rdf:RDF>
  </metadata>
  <rect
     style="fill:#ffffff;stroke-width:0.617753"
     id="rect63"
     width="160"
     height="160"
     x="0"
     y="-7.1054274e-15" />
  <path
     id="rect840"
     style="fill:#000000;stroke-width:0.670299"
     d="M 0 0 L 0 604.72461 L 604.72461 604.72461 L 604.72461 0 L 0 0 z M 302.36133 37.794922 L 566.92969 37.794922 L 566.92969 566.92969 L 37.794922 566.92969 L 37.794922 302.36133 L 302.36133 302.36133 L 302.36133 37.794922 z "
     transform="scale(0.26458333)" />
  <path
     id="rect839"
     style="fill:#ffffff;stroke-width:0.202315"
     d="M 20,20 V 70.000048 H 69.999529 V 60.000142 H 29.999906 V 29.999906 H 69.999529 V 20 Z" />
  <path
     id="rect884"
     style="fill:#000000;stroke-width:0.109044"
     d="M 89.999767,19.999906 V 69.999953 H 100.00019 V 50.000141 h 29.99972 v 19.999812 h 9.9999 V 19.999906 Z m 10.000423,9.999906 h 29.99972 v 10.000424 h -29.99972 z" />
  <path
     id="rect958"
     style="fill:#000000;stroke-width:0.245625"
     d="m 19.999906,89.999767 v 50.000043 h 9.999906 V 100.00019 H 40.000236 V 89.999767 Z" />
  <rect
     style="fill:#000000;stroke-width:0.28776"
     id="rect960-5"
     width="10"
     height="20"
     x="40"
     y="100" />
  <path
     id="rect960-6"
     style="fill:#000000;stroke-width:0.203477"
     d="m 50.000141,89.999767 v 10.000423 h 9.999906 v 39.99962 h 9.999906 V 89.999767 Z" />
  <path
     id="rect884-7-9"
     style="fill:#000000;stroke-width:0.109044"
     d="M 89.999767,89.999767 V 120 h 40.000143 v 9.99991 H 89.999767 v 9.9999 h 50.000043 v -29.99972 h -39.99962 v -9.9999 h 39.99962 V 89.999767 Z" />
</svg>
